<svg xmlns="http://www.w3.org/2000/svg" viewBox="0 0 168 168" fill="none">
  <circle cx="84" cy="84" r="84" fill="#1DB954"/>
  <path d="M115.2 117.4c-1.6 2.7-5 3.6-7.7 2a82.5 82.5 0 0 0-43.6-10.4c-4.6.4-8.6-3-9-7.6s3-8.6 7.6-9a100.5 100.5 0 0 1 53.1 12.6c2.7 1.6 3.6 5 2 7.7zM122.3 95.7c-2 3.2-6.2 4.2-9.4 2.2-15.2-9.2-33.5-14-52-12.8-4 .2-7.5-2.9-7.7-7-.3-4 2.9-7.5 7-7.7 22-1.4 43.5 4 61.2 14.4 3.2 2 4.2 6.2 2.2 9.4zM130.6 73.5c-2.4 3.7-7.5 4.8-11.2 2.4-18.5-11-44.3-13.7-65.3-8.7-4 .9-8-1.5-8.9-5.5-.9-4 1.5-8 5.5-8.9 25.2-5.8 55.1-2.5 77.4 10.6 3.7 2.2 4.8 7.3 2.5 11.1z" fill="#000"/>
</svg>
